HIERARCHY
ROOT Hips
{
	OFFSET 0.00000 0.00000 0.00000
	CHANNELS 6 Xposition Yposition Zposition Yrotation Zrotation Xrotation 
	JOINT Lumbar
	{
		OFFSET 0 0 0
		CHANNELS 3 Zrotation Xrotation Yrotation
		JOINT Neck
		{
			OFFSET 0.00 0.2701 0.00
			CHANNELS 3 Zrotation Xrotation Yrotation
			End Site
			{
				OFFSET 0.00 0.1379 0.00
			}
		}
		JOINT RightShoulder
		{
			OFFSET 0.0119 0.2289 0.1181
			CHANNELS 3 Zrotation Xrotation Yrotation
			JOINT RightElbow
			{
				OFFSET 0.00 -0.1475 0.00
				CHANNELS 2 Zrotation Yrotation
				JOINT RightWrist
				{
					OFFSET 0.00 -0.1605 0.00
					CHANNELS 2 Zrotation Xrotation
					End Site
					{
						OFFSET 0.0040 -0.1068 0.0006
					}
				}
			}
		}
		JOINT LeftShoulder
		{
			OFFSET 0.0119 0.2289 -0.1181
			CHANNELS 3 Zrotation Xrotation Yrotation
			JOINT LeftElbow
			{
				OFFSET 0.00 -0.1475 0.00
				CHANNELS 2 Zrotation Yrotation
				JOINT LeftWrist
				{
					OFFSET 0.00 -0.1605 0.00
					CHANNELS 2 Zrotation Xrotation
					End Site
					{
						OFFSET 0.0040 -0.1068 -0.0006
					}
				}
			}
		}
	}
	JOINT RightHip
	{
		OFFSET 0.0316 -0.0424 0.0458
		CHANNELS 3 Zrotation Xrotation Yrotation
		JOINT RightKnee
		{
			OFFSET 0.00 -0.2438 0.00
			CHANNELS 1 Zrotation
			JOINT RightAnkle
			{
				OFFSET 0.00 -0.2449 0.00
				CHANNELS 3 Zrotation Xrotation Yrotation
				End Site
				{
					OFFSET 0.1237 -0.0542 0.0051
				}
			}
		}
	}
	JOINT LeftHip
	{
		OFFSET 0.0316 -0.0424 -0.0458
		CHANNELS 3 Zrotation Xrotation Yrotation
		JOINT LeftKnee
		{
			OFFSET 0.00 -0.2438 0.00
			CHANNELS 1 Zrotation
			JOINT LeftAnkle
			{
				OFFSET 0.00 -0.2449 0.00
				CHANNELS 3 Zrotation Xrotation Yrotation
				End Site
				{
					OFFSET 0.1237 -0.0542 -0.0051
				}
			}
		}
	}
}
MOTION
Frames: 29
Frame Time: 0.02
0 0.57926 0 203.45541 0 3.09774 9.67712 -2.17738 -2.29279 -33.78046 3.85301 2.84141 25.13665 -14.74908 4.8472 10.27394 92.54479 2.22517 2.22055 26.44481 3.73214 -7.11456 7.45983 -74.33046 -5.15825 -0.79364 1.49437 2.70276 17.69601 -23.08415 13.01611 -11.72101 -15.26873 0.0229 -4.38532 -10.35758 -17.18317 9.55322 8.90717 13.75878
-0.0001 0.57927 -5e-05 203.54903 0 3.09471 9.64494 -2.19188 -2.29631 -33.73615 3.86011 2.8443 25.0939 -14.75232 4.83626 10.27398 92.17776 2.20618 2.2371 26.42176 3.72952 -7.17252 7.47008 -74.33295 -5.16629 -0.77356 1.44928 2.702 17.60693 -23.01386 13.00862 -11.71205 -15.26817 0.03252 -4.37508 -10.44344 -17.19103 9.54177 8.93365 13.75795
-0.0002 0.57927 -0.00011 203.64253 0 3.0917 9.6127 -2.20639 -2.30002 -33.69206 3.8674 2.84727 25.05098 -14.75619 4.82694 10.27547 91.81111 2.18654 2.253 26.3987 3.72661 -7.22899 7.48025 -74.33522 -5.17422 -0.75356 1.40441 2.70126 17.51793 -22.94387 13.00111 -11.70311 -15.26759 0.04218 -4.36484 -10.52918 -17.19888 9.53036 8.95977 13.7571
-0.0003 0.57928 -0.00016 203.73616 0 3.08862 9.58016 -2.22103 -2.30447 -33.64848 3.87551 2.85086 25.00734 -14.76222 4.82298 10.28092 91.44285 2.16519 2.26707 26.37554 3.72239 -7.28057 7.4902 -74.33605 -5.18193 -0.7335 1.35978 2.7006 17.42871 -22.87407 12.99327 -11.69408 -15.26699 0.05198 -4.35449 -10.61493 -17.20663 9.51909 8.98466 13.75601
-0.0004 0.57928 -0.00021 203.82875 0 3.08575 9.54946 -2.2349 -2.30493 -33.60224 3.87926 2.85148 24.96799 -14.75635 4.78943 10.26307 91.08372 2.15426 2.29162 26.3531 3.72499 -7.3587 7.5013 -74.3438 -5.19095 -0.71356 1.31362 2.69951 17.34105 -22.80284 12.98696 -11.6854 -15.26659 0.06093 -4.34469 -10.70016 -17.21478 9.50722 9.01601 13.75604
-0.00049 0.57929 -0.00028 203.92366 0 3.08253 9.51473 -2.25045 -2.31389 -33.56166 3.89225 2.85817 24.91928 -14.77596 4.81932 10.29611 90.70521 2.12037 2.29347 26.32903 3.71325 -7.38017 7.50999 -74.33741 -5.19712 -0.69352 1.2709 2.69931 17.24992 -22.73498 12.97756 -11.67607 -15.26571 0.07175 -4.33378 -10.78673 -17.22213 9.49655 9.03374 13.75377
-0.00055 0.57931 -0.00037 204.02639 0 3.07758 9.46902 -2.27073 -2.34724 -33.53646 3.9321 2.88417 24.84492 -14.86692 5.02407 10.46466 90.26325 2.02667 2.23366 26.30089 3.65936 -7.24324 7.51176 -74.28576 -5.19587 -0.67123 1.23574 2.70199 17.1483 -22.67269 12.95796 -11.66397 -15.26395 0.08767 -4.31882 -10.87716 -17.22687 9.48954 9.01233 13.74411
-0.00059 0.57934 -0.00048 204.1315 0 3.07245 9.4192 -2.29274 -2.38922 -33.51715 3.98116 2.91578 24.7608 -14.98379 5.29275 10.68724 89.80245 1.90837 2.15008 26.27109 3.59137 -7.04909 7.51121 -74.2208 -5.1917 -0.64907 1.20437 2.70548 17.04312 -22.61442 12.93551 -11.65137 -15.26167 0.10554 -4.30292 -10.96917 -17.23086 9.48364 8.97739 13.73224
-0.00064 0.57937 -0.00058 204.23449 0 3.06789 9.37109 -2.31387 -2.42643 -33.49508 4.02512 2.94326 24.68114 -15.08794 5.53322 10.88663 89.3569 1.79965 2.07743 26.2416 3.53143 -6.88249 7.51185 -74.16602 -5.18852 -0.62819 1.17252 2.70839 16.9402 -22.55664 12.91543 -11.63963 -15.25927 0.1226 -4.28805 -11.06032 -17.2355 9.47701 8.94964 13.72214
-0.00069 0.5794 -0.00068 204.34108 0 3.06117 9.32352 -2.33528 -2.4664 -33.47275 4.07268 2.97766 24.60216 -15.19496 5.77181 11.0739 88.88564 1.70031 2.00674 26.2136 3.46467 -6.71032 7.51171 -74.09426 -5.18656 -0.60203 1.1355 2.71228 16.83506 -22.48904 12.89087 -11.62526 -15.25817 0.13932 -4.27055 -11.1515 -17.23894 9.4714 8.91764 13.70907
-0.00072 0.57942 -0.00079 204.44171 0 3.05905 9.27403 -2.35668 -2.50368 -33.45313 4.11525 2.99865 24.51847 -15.30357 6.02736 11.30719 88.46039 1.57231 1.92321 26.18261 3.40862 -6.53499 7.51289 -74.05416 -5.18162 -0.58643 1.11006 2.7142 16.73312 -22.44292 12.87492 -11.61622 -15.25451 0.15725 -4.2584 -11.24368 -17.24457 9.46383 8.8911 13.70132
-0.00073 0.57942 -0.0009 204.51711 0 3.06845 9.21865 -2.37623 -2.52323 -33.43347 4.13897 2.98397 24.43168 -15.39866 6.33194 11.59084 88.20069 1.40412 1.84004 26.13978 3.38675 -6.37477 7.51601 -74.10956 -5.16687 -0.60421 1.11634 2.71158 16.64563 -22.45436 12.8838 -11.62211 -15.24163 0.17782 -4.26056 -11.3325 -17.25776 9.45143 8.88459 13.71176
-0.00072 0.57942 -0.00101 204.58801 0 3.0827 9.16179 -2.39598 -2.54154 -33.41781 4.15791 2.95502 24.33847 -15.49699 6.6477 11.93376 87.98715 1.2052 1.74158 26.09494 3.3759 -6.21145 7.52093 -74.19648 -5.1496 -0.63187 1.13401 2.70676 16.56049 -22.48738 12.90139 -11.63333 -15.22663 0.19964 -4.26826 -11.42335 -17.27299 9.43687 8.88375 13.727
-0.00072 0.57942 -0.00112 204.66624 0 3.09556 9.10659 -2.41653 -2.56548 -33.40391 4.18082 2.93089 24.24407 -15.60092 6.94711 12.28744 87.72317 0.99439 1.62736 26.0534 3.35927 -6.04317 7.52653 -74.26572 -5.13505 -0.65214 1.14601 2.70219 16.4713 -22.51104 12.9148 -11.64207 -15.21409 0.22099 -4.27395 -11.51705 -17.28636 9.42275 8.87919 13.73818
-0.00071 0.57942 -0.00124 204.72196 0 3.10508 9.04695 -2.43333 -2.56735 -33.37375 4.19631 2.91424 24.16923 -15.67435 7.29783 12.47173 87.56012 0.87781 1.59826 26.00094 3.34548 -5.90005 7.52584 -74.34832 -5.11395 -0.68446 1.16023 2.70073 16.39501 -22.53307 12.92906 -11.65117 -15.19518 0.24179 -4.27758 -11.59493 -17.30342 9.41091 8.87889 13.7575
-0.00071 0.57942 -0.00134 204.82382 0 3.1226 8.99645 -2.45802 -2.616 -33.38002 4.2262 2.8782 24.04905 -15.8137 7.54163 13.0374 87.22662 0.57562 1.40103 25.97178 3.32847 -5.70419 7.53858 -74.41115 -5.10567 -0.69429 1.17248 2.69238 16.29192 -22.56345 12.94362 -11.66065 -15.18907 0.26426 -4.28667 -11.70617 -17.31357 9.39383 8.87135 13.76067
-0.00077 0.57945 -0.00139 205.05053 0 3.16174 8.96978 -2.504 -2.78295 -33.47121 4.29476 2.79548 23.83437 -16.11699 7.50558 14.50725 86.16581 -0.38261 0.63335 25.99874 3.30096 -5.3671 7.58918 -74.40813 -5.13563 -0.6371 1.17673 2.66441 16.11948 -22.6129 12.95726 -11.67115 -15.21856 0.2891 -4.31094 -11.90894 -17.30219 9.36257 8.84167 13.72133
-0.00084 0.57949 -0.00143 205.32397 0 3.20862 8.95254 -2.55798 -2.99849 -33.60142 4.37814 2.69336 23.57019 -16.48938 7.35971 16.3805 84.97716 -1.4983 -0.28439 26.0509 3.26982 -4.97699 7.653 -74.38475 -5.17822 -0.55738 1.17873 2.62987 15.9195 -22.66996 12.97086 -11.68166 -15.26099 0.31602 -4.34023 -12.14492 -17.28441 9.3262 8.80475 13.66514
-0.0009 0.57952 -0.00147 205.57904 0 3.25151 8.9324 -2.60858 -3.19984 -33.72371 4.45643 2.59758 23.30791 -16.84166 7.2495 18.16097 84.00877 -2.44262 -1.05866 26.0972 3.23953 -4.60866 7.71004 -74.37322 -5.21356 -0.48959 1.18135 2.59893 15.72815 -22.72244 12.98423 -11.69128 -15.29772 0.34311 -4.36632 -12.36612 -17.27053 9.29222 8.77165 13.61435
-0.00097 0.57956 -0.0015 205.82397 0 3.29662 8.9071 -2.65815 -3.37026 -33.80568 4.52844 2.51068 23.12691 -17.14735 7.19213 19.57436 82.35979 -3.80914 -2.14295 26.11965 3.21246 -4.24858 7.77054 -74.35225 -5.25506 -0.41503 1.18529 2.56488 15.55138 -22.77959 12.99892 -11.70465 -15.33382 0.36514 -4.39663 -12.58727 -17.25149 9.2576 8.73637 13.57261
-0.00104 0.5796 -0.00156 206.09853 0 3.33879 8.89389 -2.71172 -3.61363 -33.97962 4.61606 2.40222 22.77176 -17.56523 7.0082 21.83094 82.09434 -4.33365 -2.6274 26.19799 3.17834 -3.8605 7.82681 -74.34518 -5.28692 -0.34909 1.18679 2.53633 15.34005 -22.82959 13.01079 -11.71035 -15.37406 0.39872 -4.41911 -12.81488 -17.24296 9.2235 8.70403 13.50875
-0.00113 0.57965 -0.00169 206.4671 0 3.37162 8.91931 -2.77458 -4.07247 -34.40823 4.75206 2.22713 21.88981 -18.28608 6.41804 26.45553 85.70347 -2.49218 -1.32784 26.42299 3.1202 -3.39404 7.86944 -74.38611 -5.28774 -0.31234 1.17327 2.52005 15.01873 -22.84843 13.01421 -11.69304 -15.42483 0.45976 -4.42014 -13.0658 -17.25518 9.18911 8.67984 13.3811
-0.00122 0.57971 -0.00186 206.86002 0 3.40095 8.95499 -2.84113 -4.59816 -34.92596 4.90157 2.03319 20.84548 -19.11526 5.71975 31.88685 90.70141 0.20035 0.5641 26.70377 3.0562 -2.90441 7.90726 -74.44088 -5.27877 -0.28496 1.1589 2.5105 14.66698 -22.86129 13.01483 -11.66829 -15.47893 0.53361 -4.41282 -13.31998 -17.28091 9.15612 8.65923 13.23299
-0.0013 0.57976 -0.00203 207.22567 0 3.43158 8.9812 -2.90592 -5.07635 -35.39631 5.03911 1.85588 19.91315 -19.88861 5.12587 36.86006 95.05266 2.50371 2.12478 26.95985 2.99826 -2.43388 7.94623 -74.48594 -5.27509 -0.25344 1.15072 2.50071 14.3438 -22.88327 13.01716 -11.6482 -15.52999 0.60349 -4.40843 -13.56318 -17.30583 9.12432 8.63803 13.09875
-0.00143 0.57983 -0.0021 207.65921 0 3.46422 9.02867 -2.9715 -5.62878 -35.89765 5.20192 1.64429 18.81645 -20.69348 4.29527 42.24099 99.47924 4.81772 3.94044 27.21362 2.92533 -1.92302 7.98939 -74.54414 -5.26799 -0.22094 1.11819 2.47831 13.9597 -22.87926 13.01778 -11.62291 -15.58784 0.66344 -4.40796 -13.84578 -17.30449 9.08414 8.61192 12.94477
-0.00147 0.57986 -0.00241 207.95921 0 3.49108 9.0334 -3.03602 -6.04148 -36.35434 5.31491 1.49933 18.02587 -21.45594 3.93291 46.9498 104.06258 7.30613 5.36984 27.48571 2.88292 -1.49424 8.02333 -74.5793 -5.26587 -0.19262 1.1359 2.48447 13.69275 -22.92691 13.02113 -11.60645 -15.63229 0.74984 -4.39718 -14.04898 -17.36557 9.06241 8.59733 12.8271
-0.00127 0.5798 -0.00333 207.86212 0 3.50796 8.92367 -3.09784 -6.05485 -36.67225 5.28858 1.54731 18.10554 -22.08792 4.89525 49.68339 108.89291 10.13348 5.56954 27.78973 2.92098 -1.27368 8.02609 -74.54081 -5.27701 -0.17683 1.29506 2.56292 13.78046 -23.12647 13.03413 -11.61819 -15.63762 0.88364 -4.3606 -14.01208 -17.55944 9.0865 8.61061 12.81498
-0.00098 0.57971 -0.00449 207.63449 0 3.51786 8.76913 -3.15791 -5.92472 -36.9408 5.21117 1.662 18.50116 -22.67053 6.33162 51.69743 113.80515 13.09518 5.3642 28.11125 2.99113 -1.14145 8.02107 -74.48001 -5.29409 -0.1643 1.5043 2.67102 13.98207 -23.37655 13.04965 -11.63867 -15.6295 1.04856 -4.31366 -13.89869 -17.82345 9.13015 8.63581 12.8394
-0.00072 0.57963 -0.00555 207.4801 0 3.52795 8.63135 -3.21844 -5.85793 -37.22761 5.15617 1.74376 18.76302 -23.26695 7.54871 53.9859 118.57929 15.9536 5.35701 28.42768 3.04978 -0.98465 8.02392 -74.43385 -5.3101 -0.14846 1.68899 2.76855 14.11708 -23.59856 13.06312 -11.65392 -15.62833 1.21307 -4.27121 -13.83338 -18.07794 9.16789 8.65781 12.8479
